<svg xmlns="http://www.w3.org/2000/svg" viewBox="0 0 24 24" fill="currentColor">
  <path d="M12 0C5.4 0 0 5.4 0 12s5.4 12 12 12 12-5.4 12-12S18.66 0 12 0Zm5.521 17.34a.75.75 0 0 1-1.03.25c-2.82-1.724-6.37-2.114-10.553-1.158a.75.75 0 1 1-.334-1.462c4.576-1.046 8.505-.596 11.667 1.34a.75.75 0 0 1 .25 1.03Zm1.474-3.267a.938.938 0 0 1-1.287.308c-3.225-1.983-8.142-2.557-11.955-1.399a.938.938 0 0 1-.543-1.794c4.353-1.322 9.764-.682 13.477 1.597a.938.938 0 0 1 .308 1.288Zm.127-3.403C15.688 8.47 9.117 8.258 5.314 9.42a1.125 1.125 0 1 1-.653-2.153c4.368-1.333 11.627-1.076 16.215 1.553a1.125 1.125 0 0 1-1.754 1.85Z"/>
</svg>
